<svg width="1272.89990234375px" height="134.4000030517578px" xmlns="http://www.w3.org/2000/svg" viewBox="-386.449951171875 7.799998474121097 1272.89990234375 134.4000030517578" style="background: rgba(0, 0, 0, 0);" preserveAspectRatio="xMidYMid"><defs><filter id="editing-jagged" x="-100%" y="-100%" width="300%" height="300%"><feTurbulence result="turb" baseFrequency="0.1" numOctaves="1" seed="1"></feTurbulence><feDisplacementMap in="SourceGraphic" in2="turb" scale="10"></feDisplacementMap></filter></defs><g filter="url(#editing-jagged)"><g transform="translate(-209.22001159191132, 100.46999549865723)"><path d="M7.88-41.47L7.88-41.47L7.88-41.47Q7.81-42.63 0.91-43.31L0.91-43.31L0.91-43.31Q0.63-44.28 0.63-45.19L0.63-45.19L0.63-45.19Q0.63-46.22 1.03-47.38L1.03-47.38L1.03-47.38Q3.78-47.38 8.48-47.20L8.48-47.20L8.48-47.20Q13.19-47.03 15.03-47.03L15.03-47.03L15.03-47.03Q16.38-47.03 20.22-47.09L20.22-47.09L20.22-47.09Q24.06-47.16 26.88-47.16L26.88-47.16L26.88-47.16Q27.19-46.22 27.19-45.25L27.19-45.25L27.19-45.25Q27.19-44.34 26.94-43.31L26.94-43.31L26.94-43.31Q20.03-42.63 19.97-41.47L19.97-41.47L19.97-41.47Q19.84-39.28 19.84-18.63L19.84-18.63L19.84-18.63Q19.84-10.75 22.31-7L22.31-7L22.31-7Q24.78-3.25 30.53-2.94L30.53-2.94L30.53-2.94Q36.59-3.31 39.89-7.36L39.89-7.36L39.89-7.36Q43.19-11.41 43.19-18.63L43.19-18.63L43.19-18.63Q43.19-33.47 43-40.97L43-40.97L43-40.97Q42.94-42.50 36.28-43.47L36.28-43.47L36.28-43.47Q36.03-44.22 36.03-45L36.03-45L36.03-45Q36.03-45.94 36.47-47.22L36.47-47.22L36.47-47.22Q45.31-46.97 47.03-46.97L47.03-46.97L47.03-46.97Q50.38-46.97 55.56-47.16L55.56-47.16L55.56-47.16Q56-45.81 56-45.19L56-45.19L56-45.19Q56-44.22 55.56-43.25L55.56-43.25L55.56-43.25Q49.09-42.63 49.03-40.97L49.03-40.97L49.03-40.97Q48.72-34.94 48.72-18.63L48.72-18.63L48.72-18.63Q48.72-13.75 47.44-9.95L47.44-9.95L47.44-9.95Q46.16-6.16 44.17-3.84L44.17-3.84L44.17-3.84Q42.19-1.53 39.56-0.03L39.56-0.03L39.56-0.03Q36.94 1.47 34.50 2.02L34.50 2.02L34.50 2.02Q32.06 2.56 29.56 2.56L29.56 2.56L29.56 2.56Q24.56 2.56 20.92 1.67L20.92 1.67L20.92 1.67Q17.28 0.78 14.27-1.47L14.27-1.47L14.27-1.47Q11.25-3.72 9.72-8L9.72-8L9.72-8Q8.19-12.28 8.19-18.63L8.19-18.63L8.19-18.63Q8.19-33.91 7.88-41.47ZM15.16-41.53L15.16-41.53L15.16-41.53Q15.22-43.91 25.59-44.53L25.59-44.53L25.59-44.53Q25.78-45.13 25.59-46.03L25.59-46.03L25.59-46.03Q17.41-45.75 12.81-45.75L12.81-45.75L12.81-45.75Q8.97-45.75 1.91-46.03L1.91-46.03L1.91-46.03Q1.66-45.44 1.91-44.53L1.91-44.53L1.91-44.53Q3.31-44.41 4.22-44.28L4.22-44.28L4.22-44.28Q5.13-44.16 6.44-43.84L6.44-43.84L6.44-43.84Q7.75-43.53 8.45-42.92L8.45-42.92L8.45-42.92Q9.16-42.31 9.16-41.47L9.16-41.47L9.16-41.47Q9.47-31.56 9.47-18.63L9.47-18.63L9.47-18.63Q9.47-12.69 10.91-8.64L10.91-8.64L10.91-8.64Q12.34-4.59 15.20-2.48L15.20-2.48L15.20-2.48Q18.06-0.38 21.45 0.45L21.45 0.45L21.45 0.45Q24.84 1.28 29.56 1.28L29.56 1.28L29.56 1.28Q31.88 1.28 34.17 0.77L34.17 0.77L34.17 0.77Q36.47 0.25 38.91-1.16L38.91-1.16L38.91-1.16Q41.34-2.56 43.20-4.73L43.20-4.73L43.20-4.73Q45.06-6.91 46.25-10.50L46.25-10.50L46.25-10.50Q47.44-14.09 47.44-18.63L47.44-18.63L47.44-18.63Q47.44-33.59 47.75-41.03L47.75-41.03L47.75-41.03Q47.88-43.78 54.66-44.41L54.66-44.41L54.66-44.41Q54.91-44.94 54.66-45.88L54.66-45.88L54.66-45.88Q48.78-45.69 46.28-45.69L46.28-45.69L46.28-45.69Q42.38-45.69 37.38-45.88L37.38-45.88L37.38-45.88Q37.13-45.38 37.38-44.41L37.38-44.41L37.38-44.41Q44.22-43.78 44.28-41.03L44.28-41.03L44.28-41.03Q44.47-33.53 44.47-18.63L44.47-18.63L44.47-18.63Q44.47-10.44 40.58-6.05L40.58-6.05L40.58-6.05Q36.69-1.66 29.44-1.66L29.44-1.66L29.44-1.66Q21.56-1.66 18.30-5.69L18.30-5.69L18.30-5.69Q15.03-9.72 15.03-18.63L15.03-18.63L15.03-18.63Q15.03-37.31 15.16-41.53ZM77.38-46.97L99-19.97L99-24.06L99-24.06Q99-31.28 98.69-41.03L98.69-41.03L98.69-41.03Q98.63-42.69 91.84-43.25L91.84-43.25L91.84-43.25Q91.41-44.34 91.41-45.25L91.41-45.25L91.41-45.25Q91.41-45.81 91.84-47.16L91.84-47.16L91.84-47.16Q96.59-46.97 101.39-46.97L101.39-46.97L101.39-46.97Q106.19-46.97 111.25-47.16L111.25-47.16L111.25-47.16Q111.69-45.81 111.69-45.25L111.69-45.25L111.69-45.25Q111.69-44.34 111.25-43.25L111.25-43.25L111.25-43.25Q104.78-42.63 104.72-41.03L104.72-41.03L104.72-41.03Q104.31-34.44 104.31-21.75L104.31-21.75L104.31-21.75Q104.31-7.44 104.72 1.41L104.72 1.41L102.16 1.47L72.50-34.81L72.50-34.81Q72.50-34.25 72.47-32.77L72.47-32.77L72.47-32.77Q72.44-31.28 72.44-30.47L72.44-30.47L72.44-30.47Q72.44-15.38 72.84-4.75L72.84-4.75L72.84-4.75Q72.91-3.06 79.69-2.50L79.69-2.50L79.69-2.50Q80.13-1.41 80.13-0.50L80.13-0.50L80.13-0.50Q80.13 0.19 79.69 1.53L79.69 1.53L79.69 1.53Q74.88 1.34 70.16 1.34L70.16 1.34L70.16 1.34Q65.34 1.34 60.28 1.53L60.28 1.53L60.28 1.53Q59.84 0.19 59.84-0.50L59.84-0.50L59.84-0.50Q59.84-1.41 60.28-2.50L60.28-2.50L60.28-2.50Q66.75-3.13 66.81-4.75L66.81-4.75L66.81-4.75Q67.19-11.31 67.19-24L67.19-24L67.19-24Q67.19-33.72 66.94-41.34L66.94-41.34L66.94-41.34Q64.91-42.94 60.75-43.25L60.75-43.25L60.75-43.25Q60.28-44.09 60.28-45.19L60.28-45.19L60.28-45.19Q60.28-46.34 60.88-47.28L60.88-47.28L60.88-47.28Q67.41-46.97 77.38-46.97L77.38-46.97ZM103.03-21.75L103.03-21.75L103.03-21.75Q103.03-31.22 103.44-41.03L103.44-41.03L103.44-41.03Q103.56-43.84 110.34-44.47L110.34-44.47L110.34-44.47Q110.59-45 110.34-45.94L110.34-45.94L110.34-45.94Q104.44-45.75 101.97-45.75L101.97-45.75L101.97-45.75Q98.06-45.75 93.06-45.94L93.06-45.94L93.06-45.94Q92.81-45 93.06-44.47L93.06-44.47L93.06-44.47Q99.91-43.84 99.97-41.03L99.97-41.03L99.97-41.03Q100.28-31.28 100.28-24.06L100.28-24.06L100.28-24.06Q100.28-19.84 100.16-12.69L100.16-12.69L73.22-45.69L73.22-45.69Q66.19-45.69 61.56-45.94L61.56-45.94L61.56-45.94Q61.31-45.19 61.56-44.47L61.56-44.47L61.56-44.47Q65.59-44.22 68.22-41.91L68.22-41.91L68.22-41.91Q68.47-34.31 68.47-24L68.47-24L68.47-24Q68.47-14.53 68.09-4.75L68.09-4.75L68.09-4.75Q67.97-1.91 61.19-1.28L61.19-1.28L61.19-1.28Q60.94-0.78 61.19 0.19L61.19 0.19L61.19 0.19Q67.06 0 69.56 0L69.56 0L69.56 0Q73.47 0 78.47 0.19L78.47 0.19L78.47 0.19Q78.72-0.78 78.47-1.28L78.47-1.28L78.47-1.28Q71.63-1.91 71.56-4.75L71.56-4.75L71.56-4.75Q71.25-14.47 71.25-21.69L71.25-21.69L71.25-21.69Q71.25-29.94 71.44-38.03L71.44-38.03L71.75-38.03L102.78 0.19L103.38 0.13L103.38 0.13Q103.03-7.22 103.03-21.75ZM131.69-43.31L131.69-43.31L131.69-43.31Q135.09-43.72 138.88-43.72L138.88-43.72L138.88-43.72Q143.03-43.72 146.33-42.41L146.33-42.41L146.33-42.41Q149.63-41.09 151.67-39.05L151.67-39.05L151.67-39.05Q153.72-37 155.03-34.22L155.03-34.22L155.03-34.22Q156.34-31.44 156.86-28.70L156.86-28.70L156.86-28.70Q157.38-25.97 157.38-23.09L157.38-23.09L157.38-23.09Q157.38-13.63 152.06-7.94L152.06-7.94L152.06-7.94Q146.75-2.25 136.75-2.25L136.75-2.25L131.63-2.31L131.63-2.31Q131.31-15.28 131.31-21.69L131.31-21.69L131.31-21.69Q131.31-33.28 131.69-43.31ZM138.41 1.28L138.41 1.28L138.41 1.28Q127.94 1.28 117.50 1.53L117.50 1.53L117.50 1.53Q116.72-0.63 117.50-2.50L117.50-2.50L117.50-2.50Q124.28-3.19 124.34-4.34L124.34-4.34L124.34-4.34Q124.72-14.16 124.72-24L124.72-24L124.72-24Q124.72-34.06 124.41-41.41L124.41-41.41L124.41-41.41Q124.34-42.56 117.44-43.25L117.44-43.25L117.44-43.25Q116.91-45.25 117.56-47.28L117.56-47.28L117.56-47.28Q121.41-47.22 141.50-47.22L141.50-47.22L141.50-47.22Q145.84-47.22 149.48-46.69L149.48-46.69L149.48-46.69Q153.13-46.16 156.91-44.55L156.91-44.55L156.91-44.55Q160.69-42.94 163.28-40.34L163.28-40.34L163.28-40.34Q165.88-37.75 167.50-33.34L167.50-33.34L167.50-33.34Q169.13-28.94 169.13-23.03L169.13-23.03L169.13-23.03Q169.13-17.41 167.22-13.06L167.22-13.06L167.22-13.06Q165.31-8.72 162.23-6.06L162.23-6.06L162.23-6.06Q159.16-3.41 155-1.70L155-1.70L155-1.70Q150.84 0 146.81 0.64L146.81 0.64L146.81 0.64Q142.78 1.28 138.41 1.28ZM136.50-42.19L136.50-42.19L136.50-42.19Q136.13-31.22 136.13-21.69L136.13-21.69L136.13-21.69Q136.13-13.94 136.38-3.53L136.38-3.53L136.38-3.53Q146.22-3.78 151.16-9.06L151.16-9.06L151.16-9.06Q156.09-14.34 156.09-23.09L156.09-23.09L156.09-23.09Q156.09-26.50 155.28-29.61L155.28-29.61L155.28-29.61Q154.47-32.72 152.69-35.66L152.69-35.66L152.69-35.66Q150.91-38.59 147.48-40.42L147.48-40.42L147.48-40.42Q144.06-42.25 139.44-42.38L139.44-42.38L139.44-42.38Q137.91-42.38 136.50-42.19ZM118.38 0.19L118.38 0.19L118.38 0.19Q125.09 0 136.19 0L136.19 0L136.19 0Q140.16 0 143.86-0.61L143.86-0.61L143.86-0.61Q147.56-1.22 151.38-2.84L151.38-2.84L151.38-2.84Q155.19-4.47 157.97-6.97L157.97-6.97L157.97-6.97Q160.75-9.47 162.55-13.63L162.55-13.63L162.55-13.63Q164.34-17.78 164.34-23.09L164.34-23.09L164.34-23.09Q164.34-45.94 139.25-45.94L139.25-45.94L139.25-45.94Q136.94-45.94 132.69-45.84L132.69-45.84L132.69-45.84Q128.44-45.75 124.98-45.75L124.98-45.75L124.98-45.75Q121.53-45.75 118.44-45.94L118.44-45.94L118.44-45.94Q118.19-45.38 118.44-44.47L118.44-44.47L118.44-44.47Q125.63-43.78 125.69-41.47L125.69-41.47L125.69-41.47Q126-34.13 126-24L126-24L126-24Q126-14.09 125.63-4.28L125.63-4.28L125.63-4.28Q125.56-1.97 118.38-1.28L118.38-1.28L118.38-1.28Q118.06-0.56 118.38 0.19ZM202.09-45.69L202.09-45.69L186.38-45.69L186.38-45.69Q182.47-45.69 175.41-45.94L175.41-45.94L175.41-44.47L175.41-44.47Q182.59-43.78 182.66-41.47L182.66-41.47L182.66-41.47Q182.97-34.13 182.97-24L182.97-24L182.97-24Q182.97-14.09 182.59-4.28L182.59-4.28L182.59-4.28Q182.53-1.97 175.34-1.28L175.34-1.28L175.34-1.28Q175.22-0.19 175.34 0.19L175.34 0.19L175.34 0.19Q181.38 0 203.38 0L203.38 0L203.38 0Q211.06 0 214.94-2.63L214.94-2.63L214.94-2.63Q218.81-5.25 221.94-11.66L221.94-11.66L221.94-11.66Q221.69-12.16 220.84-12.47L220.84-12.47L220.84-12.47Q215.16-1.91 199.88-1.91L199.88-1.91L188.59-1.91L188.59-1.91Q188.28-15.56 188.28-21.88L188.28-21.88L198.47-21.94L198.47-21.94Q199.81-21.94 200.98-21.50L200.98-21.50L200.98-21.50Q202.16-21.06 202.86-20.61L202.86-20.61L202.86-20.61Q203.56-20.16 204.50-18.88L204.50-18.88L204.50-18.88Q205.44-17.59 205.81-17.02L205.81-17.02L205.81-17.02Q206.19-16.44 207.13-14.63L207.13-14.63L207.13-14.63Q208.06-12.81 208.38-12.28L208.38-12.28L208.38-12.28Q209.34-12.69 209.59-13.13L209.59-13.13L209.59-13.13Q206.47-18.44 206.47-22.91L206.47-22.91L206.47-22.91Q206.47-24.84 207.36-27.63L207.36-27.63L207.36-27.63Q208.25-30.41 209.59-32.72L209.59-32.72L209.59-32.72Q209.34-33.16 208.38-33.53L208.38-33.53L208.38-33.53Q208.13-33.09 207.39-31.66L207.39-31.66L207.39-31.66Q206.66-30.22 206.42-29.80L206.42-29.80L206.42-29.80Q206.19-29.38 205.52-28.25L205.52-28.25L205.52-28.25Q204.84-27.13 204.47-26.75L204.47-26.75L204.47-26.75Q204.09-26.38 203.36-25.64L203.36-25.64L203.36-25.64Q202.63-24.91 201.95-24.64L201.95-24.64L201.95-24.64Q201.28-24.38 200.38-24.16L200.38-24.16L200.38-24.16Q199.47-23.94 198.47-23.94L198.47-23.94L198.47-23.94Q191.75-23.94 188.28-24.06L188.28-24.06L188.28-24.06Q188.28-31.63 188.66-43.78L188.66-43.78L198.59-43.78L198.59-43.78Q213.88-43.78 219.56-33.22L219.56-33.22L219.56-33.22Q220.41-33.53 220.66-34.06L220.66-34.06L220.66-34.06Q217.53-40.44 213.66-43.06L213.66-43.06L213.66-43.06Q209.78-45.69 202.09-45.69ZM206.41-32.50L206.41-32.50L207.75-35.13L207.75-35.13Q210.38-34.19 211.06-32.72L211.06-32.72L211.06-32.72Q209.66-30.28 208.70-27.45L208.70-27.45L208.70-27.45Q207.75-24.63 207.75-22.91L207.75-22.91L207.75-22.91Q207.75-18.75 211.06-13.13L211.06-13.13L211.06-13.13Q210.31-11.53 207.88-10.69L207.88-10.69L207.88-10.69Q206.72-12.59 206.19-13.63L206.19-13.63L206.19-13.63Q204.91-15.75 204.17-16.80L204.17-16.80L204.17-16.80Q203.44-17.84 201.97-18.91L201.97-18.91L201.97-18.91Q200.50-19.97 198.72-20.03L198.72-20.03L193.09-20.03L193.09-20.03Q193.09-13.13 193.34-3.19L193.34-3.19L199.81-3.19L199.81-3.19Q207.75-3.19 212.73-6.30L212.73-6.30L212.73-6.30Q217.72-9.41 220.28-14.09L220.28-14.09L220.28-14.09Q222.91-13.13 223.59-11.66L223.59-11.66L223.59-11.66Q219.50-4.88 218.75 1.28L218.75 1.28L192.81 1.28L192.81 1.28Q180.47 1.28 174.47 1.47L174.47 1.47L174.47 1.47Q173.81-0.56 174.41-2.50L174.41-2.50L174.41-2.50Q181.25-3.19 181.31-4.34L181.31-4.34L181.31-4.34Q181.69-14.16 181.69-24L181.69-24L181.69-24Q181.69-34.06 181.38-41.41L181.38-41.41L181.38-41.41Q181.31-42.56 174.41-43.25L174.41-43.25L174.41-43.25Q173.81-45.44 174.53-47.28L174.53-47.28L174.53-47.28Q184.13-46.97 187.25-46.97L187.25-46.97L217.47-46.97L217.47-46.97Q218.22-40.84 222.34-34.06L222.34-34.06L222.34-34.06Q221.63-32.56 219-31.63L219-31.63L219-31.63Q216.44-36.28 211.45-39.39L211.45-39.39L211.45-39.39Q206.47-42.50 198.53-42.50L198.53-42.50L193.41-42.50L193.41-42.50Q193.09-31.28 193.09-25.28L193.09-25.28L193.09-25.28Q195.06-25.22 198.78-25.22L198.78-25.22L198.78-25.22Q201.41-25.22 202.97-26.98L202.97-26.98L202.97-26.98Q204.53-28.75 206.41-32.50ZM242.28-43.78L242.28-43.78L242.34-43.78L242.34-43.78Q244.28-43.91 247.34-43.91L247.34-43.91L247.34-43.91Q252.09-43.91 254.61-40.97L254.61-40.97L254.61-40.97Q257.13-38.03 257.13-33.34L257.13-33.34L257.13-33.34Q257.13-28.59 254.83-25.11L254.83-25.11L254.83-25.11Q252.53-21.63 247.66-21.63L247.66-21.63L247.66-21.63Q244.78-21.63 241.97-22.34L241.97-22.34L241.97-22.34Q241.97-33.34 242.28-43.78ZM255.84-33.34L255.84-33.34L255.84-33.34Q255.84-37.38 253.42-40.13L253.42-40.13L253.42-40.13Q251-42.88 247.03-42.56L247.03-42.56L247.03-42.56Q246.78-30.53 246.78-23.28L246.78-23.28L246.78-23.28Q247.41-23.09 248.69-22.97L248.69-22.97L248.69-22.97Q252.34-23.38 254.09-26.41L254.09-26.41L254.09-26.41Q255.84-29.44 255.84-33.34ZM236.28-4.28L236.28-4.28L236.28-4.28Q236.22-1.97 229.03-1.28L229.03-1.28L229.03-1.28Q228.78-0.78 229.03 0.19L229.03 0.19L229.03 0.19Q234.34 0 239.94 0L239.94 0L239.94 0Q246.59 0 252.72 0.19L252.72 0.19L252.72 0.19Q252.97-0.31 252.72-1.28L252.72-1.28L252.72-1.28Q242.34-1.91 242.28-4.28L242.28-4.28L242.28-4.28Q241.97-13.06 241.97-19.97L241.97-19.97L241.97-19.97Q245.50-19.25 248.50-19.25L248.50-19.25L248.50-19.25Q253.63-9.72 262 0L262 0L262 0Q263.59 0 266.61 0.03L266.61 0.03L266.61 0.03Q269.63 0.06 272.05 0.09L272.05 0.09L272.05 0.09Q274.47 0.13 276.66 0.19L276.66 0.19L276.66 0.19Q276.91-0.38 276.66-1.28L276.66-1.28L276.66-1.28Q271.53-1.66 268.02-3.80L268.02-3.80L268.02-3.80Q264.50-5.94 259.81-11.72L259.81-11.72L259.81-11.72Q256.63-15.75 254.06-20.22L254.06-20.22L254.06-20.22Q258.69-21.75 261.34-25.31L261.34-25.31L261.34-25.31Q264-28.88 264-33.34L264-33.34L264-33.34Q264-38.97 260.38-42.45L260.38-42.45L260.38-42.45Q256.75-45.94 250.34-45.94L250.34-45.94L250.34-45.94Q229.22-45.69 229.09-45.94L229.09-45.94L229.09-45.94Q228.91-45.19 229.09-44.47L229.09-44.47L229.09-44.47Q236.28-43.78 236.34-41.47L236.34-41.47L236.34-41.47Q236.66-34.13 236.66-24L236.66-24L236.66-24Q236.66-14.09 236.28-4.28ZM235-4.34L235-4.34L235-4.34Q235.38-12.16 235.38-24L235.38-24L235.38-24Q235.38-34.06 235.06-41.41L235.06-41.41L235.06-41.41Q235-42.56 228.09-43.25L228.09-43.25L228.09-43.25Q227.56-45.31 228.22-47.28L228.22-47.28L228.22-47.28Q231.66-47.09 235.69-47.09L235.69-47.09L235.69-47.09Q239.72-47.09 244.94-47.16L244.94-47.16L244.94-47.16Q250.16-47.22 252.59-47.22L252.59-47.22L252.59-47.22Q260.16-47.22 264.47-43.39L264.47-43.39L264.47-43.39Q268.78-39.56 268.78-33.34L268.78-33.34L268.78-33.34Q268.78-28.94 266.25-25.22L266.25-25.22L266.25-25.22Q263.72-21.50 259.44-19.59L259.44-19.59L259.44-19.59Q261.56-16.13 264.38-12.47L264.38-12.47L264.38-12.47Q267.69-8.06 270.89-5.47L270.89-5.47L270.89-5.47Q274.09-2.88 278-2.50L278-2.50L278-2.50Q278.50-0.50 277.88 1.53L277.88 1.53L277.88 1.53Q273.41 1.41 261.44 1.28L261.44 1.28L261.44 1.28Q252.66-8.97 247.72-17.97L247.72-17.97L246.78-17.97L246.78-17.97Q246.78-12.16 247.09-4.34L247.09-4.34L247.09-4.34Q247.09-4.16 247.25-3.97L247.25-3.97L247.25-3.97Q247.41-3.78 248.47-3.38L248.47-3.38L248.47-3.38Q249.53-2.97 251.70-2.67L251.70-2.67L251.70-2.67Q253.88-2.38 254.13-2.31L254.13-2.31L254.13-2.31Q254.66-0.56 253.94 1.53L253.94 1.53L253.94 1.53Q242.41 1.28 239.94 1.28L239.94 1.28L239.94 1.28Q238.25 1.28 228.16 1.53L228.16 1.53L228.16 1.53Q227.38-0.63 228.16-2.50L228.16-2.50L228.16-2.50Q234.94-3.19 235-4.34ZM322.72 1.28L322.72 1.28L322.72 1.28Q327.47 1.28 332.45-0.89L332.45-0.89L332.45-0.89Q337.44-3.06 340.34-7.28L340.34-7.28L340.34-7.28Q340.34-7.69 339.98-7.97L339.98-7.97L339.98-7.97Q339.63-8.25 339.19-8.25L339.19-8.25L339.19-8.25Q334.50-2.56 325.41-2.56L325.41-2.56L325.41-2.56Q315.81-2.56 310.92-8.36L310.92-8.36L310.92-8.36Q306.03-14.16 306.03-22.78L306.03-22.78L306.03-22.78Q306.03-26.69 306.89-30.33L306.89-30.33L306.89-30.33Q307.75-33.97 309.58-37.30L309.58-37.30L309.58-37.30Q311.41-40.63 314.80-42.69L314.80-42.69L314.80-42.69Q318.19-44.75 322.72-44.75L322.72-44.75L322.72-44.75Q325.81-44.75 328.44-43.78L328.44-43.78L328.44-43.78Q331.06-42.81 332.75-41.50L332.75-41.50L332.75-41.50Q334.44-40.19 336.05-37.98L336.05-37.98L336.05-37.98Q337.66-35.78 338.48-34.17L338.48-34.17L338.48-34.17Q339.31-32.56 340.47-30.09L340.47-30.09L340.47-30.09Q341.41-30.22 341.63-30.78L341.63-30.78L341.63-30.78Q339.31-40.06 334.64-43.52L334.64-43.52L334.64-43.52Q329.97-46.97 322.72-46.97L322.72-46.97L322.72-46.97Q319.78-46.97 316.72-46.27L316.72-46.27L316.72-46.27Q313.66-45.56 310.42-43.77L310.42-43.77L310.42-43.77Q307.19-41.97 304.72-39.33L304.72-39.33L304.72-39.33Q302.25-36.69 300.66-32.39L300.66-32.39L300.66-32.39Q299.06-28.09 299.06-22.78L299.06-22.78L299.06-22.78Q299.06-17.47 300.66-13.19L300.66-13.19L300.66-13.19Q302.25-8.91 304.72-6.28L304.72-6.28L304.72-6.28Q307.19-3.66 310.42-1.89L310.42-1.89L310.42-1.89Q313.66-0.13 316.72 0.58L316.72 0.58L316.72 0.58Q319.78 1.28 322.72 1.28ZM339.69-28.69L339.69-28.69L339.69-28.69Q338.34-31.69 337.22-33.64L337.22-33.64L337.22-33.64Q336.09-35.59 334.22-38.02L334.22-38.02L334.22-38.02Q332.34-40.44 329.75-41.78L329.75-41.78L329.75-41.78Q327.16-43.13 323.94-43.41L323.94-43.41L323.94-43.41Q320.38-43.13 317.72-41.14L317.72-41.14L317.72-41.14Q315.06-39.16 313.61-36.06L313.61-36.06L313.61-36.06Q312.16-32.97 311.48-29.64L311.48-29.64L311.48-29.64Q310.81-26.31 310.81-22.78L310.81-22.78L310.81-22.78Q310.81-14.91 314.78-9.56L314.78-9.56L314.78-9.56Q318.75-4.22 326.63-3.84L326.63-3.84L326.63-3.84Q334.25-4.22 338.59-9.53L338.59-9.53L338.59-9.53Q339.81-9.53 340.72-8.73L340.72-8.73L340.72-8.73Q341.63-7.94 341.63-6.84L341.63-6.84L341.63-6.84Q338.47-2.25 333.09 0.16L333.09 0.16L333.09 0.16Q327.72 2.56 322.72 2.56L322.72 2.56L322.72 2.56Q319.59 2.56 316.39 1.83L316.39 1.83L316.39 1.83Q313.19 1.09 309.77-0.77L309.77-0.77L309.77-0.77Q306.34-2.63 303.72-5.41L303.72-5.41L303.72-5.41Q301.09-8.19 299.44-12.70L299.44-12.70L299.44-12.70Q297.78-17.22 297.78-22.78L297.78-22.78L297.78-22.78Q297.78-28.59 299.50-33.17L299.50-33.17L299.50-33.17Q301.22-37.75 303.91-40.50L303.91-40.50L303.91-40.50Q306.59-43.25 310.19-45.08L310.19-45.08L310.19-45.08Q313.78-46.91 317.17-47.58L317.17-47.58L317.17-47.58Q320.56-48.25 324-48.25L324-48.25L324-48.25Q328.69-48.25 334.19-47L334.19-47L334.19-47Q339.69-45.75 342.06-45.44L342.06-45.44L342.06-45.44Q341.03-41.41 341.25-38.36L341.25-38.36L341.25-38.36Q341.47-35.31 343.03-30.91L343.03-30.91L343.03-30.91Q342.13-29.06 339.69-28.69ZM375.66-43.41L375.66-43.41L375.66-43.41Q373.25-43.22 371.34-42.25L371.34-42.25L371.34-42.25Q369.44-41.28 368-39.73L368-39.73L368-39.73Q366.56-38.19 365.55-36.20L365.55-36.20L365.55-36.20Q364.53-34.22 363.89-32L363.89-32L363.89-32Q363.25-29.78 362.95-27.42L362.95-27.42L362.95-27.42Q362.66-25.06 362.66-22.78L362.66-22.78L362.66-22.78Q362.66-20.50 362.95-18.14L362.95-18.14L362.95-18.14Q363.25-15.78 363.91-13.56L363.91-13.56L363.91-13.56Q364.56-11.34 365.58-9.38L365.58-9.38L365.58-9.38Q366.59-7.41 368.05-5.89L368.05-5.89L368.05-5.89Q369.50-4.38 371.39-3.44L371.39-3.44L371.39-3.44Q373.28-2.50 375.66-2.31L375.66-2.31L375.66-2.31Q378.09-2.50 380-3.45L380-3.45L380-3.45Q381.91-4.41 383.36-5.92L383.36-5.92L383.36-5.92Q384.81-7.44 385.83-9.42L385.83-9.42L385.83-9.42Q386.84-11.41 387.48-13.61L387.48-13.61L387.48-13.61Q388.13-15.81 388.42-18.17L388.42-18.17L388.42-18.17Q388.72-20.53 388.72-22.78L388.72-22.78L388.72-22.78Q388.72-25.06 388.42-27.42L388.42-27.42L388.42-27.42Q388.13-29.78 387.48-32.02L387.48-32.02L387.48-32.02Q386.84-34.25 385.83-36.23L385.83-36.23L385.83-36.23Q384.81-38.22 383.36-39.75L383.36-39.75L383.36-39.75Q381.91-41.28 379.98-42.25L379.98-42.25L379.98-42.25Q378.06-43.22 375.66-43.41ZM374.56-0.97L374.56-0.97L374.56-0.97Q371.47-0.97 369.03-1.89L369.03-1.89L369.03-1.89Q366.59-2.81 364.73-4.39L364.73-4.39L364.73-4.39Q362.88-5.97 361.58-8.09L361.58-8.09L361.58-8.09Q360.28-10.22 359.45-12.64L359.45-12.64L359.45-12.64Q358.63-15.06 358.25-17.67L358.25-17.67L358.25-17.67Q357.88-20.28 357.88-22.78L357.88-22.78L357.88-22.78Q357.88-25.28 358.25-27.89L358.25-27.89L358.25-27.89Q358.63-30.50 359.44-32.94L359.44-32.94L359.44-32.94Q360.25-35.38 361.56-37.53L361.56-37.53L361.56-37.53Q362.88-39.69 364.72-41.28L364.72-41.28L364.72-41.28Q366.56-42.88 369.02-43.81L369.02-43.81L369.02-43.81Q371.47-44.75 374.56-44.75L374.56-44.75L374.56-44.75Q377.41-44.75 379.66-43.83L379.66-43.83L379.66-43.83Q381.91-42.91 383.61-41.30L383.61-41.30L383.61-41.30Q385.31-39.69 386.53-37.53L386.53-37.53L386.53-37.53Q387.75-35.38 388.52-32.94L388.52-32.94L388.52-32.94Q389.28-30.50 389.64-27.89L389.64-27.89L389.64-27.89Q390-25.28 390-22.78L390-22.78L390-22.78Q390-20.28 389.66-17.70L389.66-17.70L389.66-17.70Q389.31-15.13 388.55-12.70L388.55-12.70L388.55-12.70Q387.78-10.28 386.58-8.14L386.58-8.14L386.58-8.14Q385.38-6 383.66-4.41L383.66-4.41L383.66-4.41Q381.94-2.81 379.69-1.89L379.69-1.89L379.69-1.89Q377.44-0.97 374.56-0.97ZM374.56 1.28L374.56 1.28L374.56 1.28Q376.72 1.28 379.22 0.84L379.22 0.84L379.22 0.84Q381.72 0.41 384.20-0.66L384.20-0.66L384.20-0.66Q386.69-1.72 389-3.50L389-3.50L389-3.50Q391.31-5.28 393.08-7.95L393.08-7.95L393.08-7.95Q394.84-10.63 395.91-14.30L395.91-14.30L395.91-14.30Q396.97-17.97 396.97-22.78L396.97-22.78L396.97-22.78Q396.97-27.50 395.92-31.14L395.92-31.14L395.92-31.14Q394.88-34.78 393.13-37.47L393.13-37.47L393.13-37.47Q391.38-40.16 389.09-41.97L389.09-41.97L389.09-41.97Q386.81-43.78 384.31-44.89L384.31-44.89L384.31-44.89Q381.81-46 379.30-46.48L379.30-46.48L379.30-46.48Q376.78-46.97 374.56-46.97L374.56-46.97L374.56-46.97Q372.41-46.97 369.81-46.55L369.81-46.55L369.81-46.55Q367.22-46.13 364.59-45.08L364.59-45.08L364.59-45.08Q361.97-44.03 359.50-42.25L359.50-42.25L359.50-42.25Q357.03-40.47 355.13-37.78L355.13-37.78L355.13-37.78Q353.22-35.09 352.06-31.39L352.06-31.39L352.06-31.39Q350.91-27.69 350.91-22.78L350.91-22.78L350.91-22.78Q350.91-18.03 352.02-14.41L352.02-14.41L352.02-14.41Q353.13-10.78 354.97-8.11L354.97-8.11L354.97-8.11Q356.81-5.44 359.23-3.64L359.23-3.64L359.23-3.64Q361.66-1.84 364.28-0.75L364.28-0.75L364.28-0.75Q366.91 0.34 369.56 0.81L369.56 0.81L369.56 0.81Q372.22 1.28 374.56 1.28ZM375.66 2.69L375.66 2.69L375.66 2.69Q369.38 2.69 364.53 0.86L364.53 0.86L364.53 0.86Q359.69-0.97 356.38-4.30L356.38-4.30L356.38-4.30Q353.06-7.63 351.34-12.33L351.34-12.33L351.34-12.33Q349.63-17.03 349.63-22.78L349.63-22.78L349.63-22.78Q349.63-28.53 351.34-33.23L351.34-33.23L351.34-33.23Q353.06-37.94 356.38-41.27L356.38-41.27L356.38-41.27Q359.69-44.59 364.53-46.42L364.53-46.42L364.53-46.42Q369.38-48.25 375.66-48.25L375.66-48.25L375.66-48.25Q381.56-48.25 386.39-46.56L386.39-46.56L386.39-46.56Q391.22-44.88 394.64-41.64L394.64-41.64L394.64-41.64Q398.06-38.41 399.92-33.66L399.92-33.66L399.92-33.66Q401.78-28.91 401.78-22.78L401.78-22.78L401.78-22.78Q401.78-16.63 399.92-11.89L399.92-11.89L399.92-11.89Q398.06-7.16 394.64-3.91L394.64-3.91L394.64-3.91Q391.22-0.66 386.39 1.02L386.39 1.02L386.39 1.02Q381.56 2.69 375.66 2.69ZM423.91-46.97L445.53-19.97L445.53-24.06L445.53-24.06Q445.53-31.28 445.22-41.03L445.22-41.03L445.22-41.03Q445.16-42.69 438.38-43.25L438.38-43.25L438.38-43.25Q437.94-44.34 437.94-45.25L437.94-45.25L437.94-45.25Q437.94-45.81 438.38-47.16L438.38-47.16L438.38-47.16Q443.13-46.97 447.92-46.97L447.92-46.97L447.92-46.97Q452.72-46.97 457.78-47.16L457.78-47.16L457.78-47.16Q458.22-45.81 458.22-45.25L458.22-45.25L458.22-45.25Q458.22-44.34 457.78-43.25L457.78-43.25L457.78-43.25Q451.31-42.63 451.25-41.03L451.25-41.03L451.25-41.03Q450.84-34.44 450.84-21.75L450.84-21.75L450.84-21.75Q450.84-7.44 451.25 1.41L451.25 1.41L448.69 1.47L419.03-34.81L419.03-34.81Q419.03-34.25 419-32.77L419-32.77L419-32.77Q418.97-31.28 418.97-30.47L418.97-30.47L418.97-30.47Q418.97-15.38 419.38-4.75L419.38-4.75L419.38-4.75Q419.44-3.06 426.22-2.50L426.22-2.50L426.22-2.50Q426.66-1.41 426.66-0.50L426.66-0.50L426.66-0.50Q426.66 0.19 426.22 1.53L426.22 1.53L426.22 1.53Q421.41 1.34 416.69 1.34L416.69 1.34L416.69 1.34Q411.88 1.34 406.81 1.53L406.81 1.53L406.81 1.53Q406.38 0.19 406.38-0.50L406.38-0.50L406.38-0.50Q406.38-1.41 406.81-2.50L406.81-2.50L406.81-2.50Q413.28-3.13 413.34-4.75L413.34-4.75L413.34-4.75Q413.72-11.31 413.72-24L413.72-24L413.72-24Q413.72-33.72 413.47-41.34L413.47-41.34L413.47-41.34Q411.44-42.94 407.28-43.25L407.28-43.25L407.28-43.25Q406.81-44.09 406.81-45.19L406.81-45.19L406.81-45.19Q406.81-46.34 407.41-47.28L407.41-47.28L407.41-47.28Q413.94-46.97 423.91-46.97L423.91-46.97ZM449.56-21.75L449.56-21.75L449.56-21.75Q449.56-31.22 449.97-41.03L449.97-41.03L449.97-41.03Q450.09-43.84 456.88-44.47L456.88-44.47L456.88-44.47Q457.13-45 456.88-45.94L456.88-45.94L456.88-45.94Q450.97-45.75 448.50-45.75L448.50-45.75L448.50-45.75Q444.59-45.75 439.59-45.94L439.59-45.94L439.59-45.94Q439.34-45 439.59-44.47L439.59-44.47L439.59-44.47Q446.44-43.84 446.50-41.03L446.50-41.03L446.50-41.03Q446.81-31.28 446.81-24.06L446.81-24.06L446.81-24.06Q446.81-19.84 446.69-12.69L446.69-12.69L419.75-45.69L419.75-45.69Q412.72-45.69 408.09-45.94L408.09-45.94L408.09-45.94Q407.84-45.19 408.09-44.47L408.09-44.47L408.09-44.47Q412.13-44.22 414.75-41.91L414.75-41.91L414.75-41.91Q415-34.31 415-24L415-24L415-24Q415-14.53 414.63-4.75L414.63-4.75L414.63-4.75Q414.50-1.91 407.72-1.28L407.72-1.28L407.72-1.28Q407.47-0.78 407.72 0.19L407.72 0.19L407.72 0.19Q413.59 0 416.09 0L416.09 0L416.09 0Q420 0 425 0.19L425 0.19L425 0.19Q425.25-0.78 425-1.28L425-1.28L425-1.28Q418.16-1.91 418.09-4.75L418.09-4.75L418.09-4.75Q417.78-14.47 417.78-21.69L417.78-21.69L417.78-21.69Q417.78-29.94 417.97-38.03L417.97-38.03L418.28-38.03L449.31 0.19L449.91 0.13L449.91 0.13Q449.56-7.22 449.56-21.75ZM482.84-48.25L482.84-48.25L482.84-48.25Q487.31-48.25 491.06-47L491.06-47L491.06-47Q494.81-45.75 497.81-45.38L497.81-45.38L497.81-45.38Q496.16-39.56 497.69-32.84L497.69-32.84L497.69-32.84Q496.09-31.50 494.03-31.28L494.03-31.28L494.03-31.28Q493.78-31.88 493.14-33.77L493.14-33.77L493.14-33.77Q492.50-35.66 491.92-36.88L491.92-36.88L491.92-36.88Q491.34-38.09 490.33-39.66L490.33-39.66L490.33-39.66Q489.31-41.22 487.64-42.14L487.64-42.14L487.64-42.14Q485.97-43.06 483.81-43.41L483.81-43.41L483.81-43.41Q480.66-43.13 478.94-41.47L478.94-41.47L478.94-41.47Q477.22-39.81 477.22-37.19L477.22-37.19L477.22-37.19Q477.22-34.50 478.59-32.77L478.59-32.77L478.59-32.77Q479.97-31.03 482.17-30.17L482.17-30.17L482.17-30.17Q484.38-29.31 487.03-28.67L487.03-28.67L487.03-28.67Q489.69-28.03 492.31-27.11L492.31-27.11L492.31-27.11Q494.94-26.19 497.14-24.70L497.14-24.70L497.14-24.70Q499.34-23.22 500.72-20.28L500.72-20.28L500.72-20.28Q502.09-17.34 502.09-13.13L502.09-13.13L502.09-13.13Q502.09-8 499.13-4.31L499.13-4.31L499.13-4.31Q496.16-0.63 492.13 0.97L492.13 0.97L492.13 0.97Q488.09 2.56 483.88 2.56L483.88 2.56L483.88 2.56Q474.59 2.56 465.50-1.53L465.50-1.53L465.50-1.53Q465.69-5.56 465.69-6.47L465.69-6.47L465.69-6.47Q465.69-11.53 464.72-17.34L464.72-17.34L464.72-17.34Q467.53-18.69 471-17.47L471-17.47L471-17.47Q472.16-10.38 475.48-6.59L475.48-6.59L475.48-6.59Q478.81-2.81 482.78-2.38L482.78-2.38L482.78-2.38Q486.50-2.63 488.52-4.80L488.52-4.80L488.52-4.80Q490.53-6.97 490.53-10.31L490.53-10.31L490.53-10.31Q490.53-13.13 489.22-15.08L489.22-15.08L489.22-15.08Q487.91-17.03 485.75-18.11L485.75-18.11L485.75-18.11Q483.59-19.19 481.08-20.06L481.08-20.06L481.08-20.06Q478.56-20.94 476-21.92L476-21.92L476-21.92Q473.44-22.91 471.30-24.28L471.30-24.28L471.30-24.28Q469.16-25.66 467.84-28.13L467.84-28.13L467.84-28.13Q466.53-30.59 466.53-34.13L466.53-34.13L466.53-34.13Q466.53-37.31 467.55-39.84L467.55-39.84L467.55-39.84Q468.56-42.38 470.20-43.91L470.20-43.91L470.20-43.91Q471.84-45.44 474.05-46.47L474.05-46.47L474.05-46.47Q476.25-47.50 478.42-47.88L478.42-47.88L478.42-47.88Q480.59-48.25 482.84-48.25ZM482.84-46.97L482.84-46.97L482.84-46.97Q480.22-46.97 477.75-46.36L477.75-46.36L477.75-46.36Q475.28-45.75 472.95-44.38L472.95-44.38L472.95-44.38Q470.63-43 469.22-40.34L469.22-40.34L469.22-40.34Q467.81-37.69 467.81-34.13L467.81-34.13L467.81-34.13Q467.81-30.97 469.13-28.70L469.13-28.70L469.13-28.70Q470.44-26.44 472.58-25.19L472.58-25.19L472.58-25.19Q474.72-23.94 477.28-22.98L477.28-22.98L477.28-22.98Q479.84-22.03 482.36-21.06L482.36-21.06L482.36-21.06Q484.88-20.09 487.03-18.88L487.03-18.88L487.03-18.88Q489.19-17.66 490.50-15.48L490.50-15.48L490.50-15.48Q491.81-13.31 491.81-10.31L491.81-10.31L491.81-10.31Q491.81-6.16 489.16-3.59L489.16-3.59L489.16-3.59Q486.50-1.03 481.63-1.03L481.63-1.03L481.63-1.03Q476.94-1.03 472.91-4.94L472.91-4.94L472.91-4.94Q468.88-8.84 467.59-16.63L467.59-16.63L467.59-16.63Q466.97-17.03 466.13-16.63L466.13-16.63L466.13-16.63Q466.97-11.72 466.97-6.47L466.97-6.47L466.97-6.47Q466.97-5 466.84-2.31L466.84-2.31L466.84-2.31Q474.59 1.28 481.63 1.28L481.63 1.28L481.63 1.28Q487.44 1.28 492.38-2.17L492.38-2.17L492.38-2.17Q497.31-5.63 497.31-11.84L497.31-11.84L497.31-11.84Q497.31-15.38 495.94-17.83L495.94-17.83L495.94-17.83Q494.56-20.28 492.34-21.66L492.34-21.66L492.34-21.66Q490.13-23.03 487.47-24.03L487.47-24.03L487.47-24.03Q484.81-25.03 482.19-25.92L482.19-25.92L482.19-25.92Q479.56-26.81 477.36-27.91L477.36-27.91L477.36-27.91Q475.16-29 473.78-31.02L473.78-31.02L473.78-31.02Q472.41-33.03 472.41-35.91L472.41-35.91L472.41-35.91Q472.41-39.94 475.13-42.34L475.13-42.34L475.13-42.34Q477.84-44.75 482.84-44.75L482.84-44.75L482.84-44.75Q491.53-44.75 494.81-32.72L494.81-32.72L494.81-32.72Q495.78-32.56 496.16-33.16L496.16-33.16L496.16-33.16Q495.13-40.78 491.64-43.88L491.64-43.88L491.64-43.88Q488.16-46.97 482.84-46.97ZM507.75-31.63L507.75-31.63L507.75-31.63Q505.38-32.56 504.63-34.06L504.63-34.06L504.63-34.06Q506.41-37.44 507.02-38.59L507.02-38.59L507.02-38.59Q507.63-39.75 508.42-42.14L508.42-42.14L508.42-42.14Q509.22-44.53 509.53-46.97L509.53-46.97L531.19-46.97L557.22-46.97L557.22-46.97Q558-40.84 562.09-34.06L562.09-34.06L562.09-34.06Q561.38-32.56 558.75-31.63L558.75-31.63L558.75-31.63Q556.19-36.28 551.20-39.39L551.20-39.39L551.20-39.39Q546.22-42.50 538.28-42.50L538.28-42.50L538.28-42.50Q538.03-34.75 538.03-24.13L538.03-24.13L538.03-24.13Q538.03-10.56 538.34-4.34L538.34-4.34L538.34-4.34Q538.41-3.19 545.31-2.50L545.31-2.50L545.31-2.50Q545.84-0.50 545.19 1.53L545.19 1.53L545.19 1.53Q535.06 1.28 533.41 1.28L533.41 1.28L533.41 1.28Q530.91 1.28 519.41 1.53L519.41 1.53L519.41 1.53Q518.63-0.63 519.41-2.50L519.41-2.50L519.41-2.50Q526.19-3.19 526.25-4.28L526.25-4.28L526.25-4.28Q526.56-12.16 526.56-24.13L526.56-24.13L526.56-24.13Q526.56-34.13 526.31-42.31L526.31-42.31L526.31-42.31Q513.31-40.63 507.75-31.63ZM516.59-43.59L516.59-43.59L527.53-43.91L527.53-43.91Q527.84-33.53 527.84-24.13L527.84-24.13L527.84-24.13Q527.84-12.03 527.53-4.28L527.53-4.28L527.53-4.28Q527.47-1.97 520.28-1.28L520.28-1.28L520.28-1.28Q520.03-0.78 520.28 0.19L520.28 0.19L520.28 0.19Q525.59 0 531.19 0L531.19 0L531.19 0Q537.84 0 543.97 0.19L543.97 0.19L543.97 0.19Q544.22-0.38 543.97-1.28L543.97-1.28L543.97-1.28Q533.59-1.91 533.53-4.28L533.53-4.28L533.53-4.28Q533.22-14.66 533.22-24.13L533.22-24.13L533.22-24.13Q533.22-36.16 533.53-43.91L533.53-43.91L538.34-43.78L538.34-43.78Q553.91-43.41 559.34-33.22L559.34-33.22L559.34-33.22Q560.16-33.53 560.41-34.06L560.41-34.06L560.41-34.06Q557.28-40.44 553.41-43.06L553.41-43.06L553.41-43.06Q549.53-45.69 541.88-45.69L541.88-45.69L531.19-45.69L531.19-45.69Q527.78-45.69 520.91-45.72L520.91-45.72L520.91-45.72Q514.03-45.75 510.69-45.75L510.69-45.75L510.69-45.75Q510.56-44.69 510.25-43.53L510.25-43.53L510.25-43.53Q509.94-42.38 509.67-41.58L509.67-41.58L509.67-41.58Q509.41-40.78 508.80-39.47L508.80-39.47L508.80-39.47Q508.19-38.16 507.97-37.70L507.97-37.70L507.97-37.70Q507.75-37.25 506.98-35.75L506.98-35.75L506.98-35.75Q506.22-34.25 506.09-34.06L506.09-34.06L506.09-34.06Q506.34-33.53 507.19-33.22L507.19-33.22L507.19-33.22Q509.41-36.88 510.63-38.63L510.63-38.63L510.63-38.63Q511.84-40.38 513.52-41.98L513.52-41.98L513.52-41.98Q515.19-43.59 516.59-43.59ZM575.84-43.78L575.84-43.78L575.91-43.78L575.91-43.78Q577.84-43.91 580.91-43.91L580.91-43.91L580.91-43.91Q585.66-43.91 588.17-40.97L588.17-40.97L588.17-40.97Q590.69-38.03 590.69-33.34L590.69-33.34L590.69-33.34Q590.69-28.59 588.39-25.11L588.39-25.11L588.39-25.11Q586.09-21.63 581.22-21.63L581.22-21.63L581.22-21.63Q578.34-21.63 575.53-22.34L575.53-22.34L575.53-22.34Q575.53-33.34 575.84-43.78ZM589.41-33.34L589.41-33.34L589.41-33.34Q589.41-37.38 586.98-40.13L586.98-40.13L586.98-40.13Q584.56-42.88 580.59-42.56L580.59-42.56L580.59-42.56Q580.34-30.53 580.34-23.28L580.34-23.28L580.34-23.28Q580.97-23.09 582.25-22.97L582.25-22.97L582.25-22.97Q585.91-23.38 587.66-26.41L587.66-26.41L587.66-26.41Q589.41-29.44 589.41-33.34ZM569.84-4.28L569.84-4.28L569.84-4.28Q569.78-1.97 562.59-1.28L562.59-1.28L562.59-1.28Q562.34-0.78 562.59 0.19L562.59 0.19L562.59 0.19Q567.91 0 573.50 0L573.50 0L573.50 0Q580.16 0 586.28 0.19L586.28 0.19L586.28 0.19Q586.53-0.31 586.28-1.28L586.28-1.28L586.28-1.28Q575.91-1.91 575.84-4.28L575.84-4.28L575.84-4.28Q575.53-13.06 575.53-19.97L575.53-19.97L575.53-19.97Q579.06-19.25 582.06-19.25L582.06-19.25L582.06-19.25Q587.19-9.72 595.56 0L595.56 0L595.56 0Q597.16 0 600.17 0.03L600.17 0.03L600.17 0.03Q603.19 0.06 605.61 0.09L605.61 0.09L605.61 0.09Q608.03 0.13 610.22 0.19L610.22 0.19L610.22 0.19Q610.47-0.38 610.22-1.28L610.22-1.28L610.22-1.28Q605.09-1.66 601.58-3.80L601.58-3.80L601.58-3.80Q598.06-5.94 593.38-11.72L593.38-11.72L593.38-11.72Q590.19-15.75 587.63-20.22L587.63-20.22L587.63-20.22Q592.25-21.75 594.91-25.31L594.91-25.31L594.91-25.31Q597.56-28.88 597.56-33.34L597.56-33.34L597.56-33.34Q597.56-38.97 593.94-42.45L593.94-42.45L593.94-42.45Q590.31-45.94 583.91-45.94L583.91-45.94L583.91-45.94Q562.78-45.69 562.66-45.94L562.66-45.94L562.66-45.94Q562.47-45.19 562.66-44.47L562.66-44.47L562.66-44.47Q569.84-43.78 569.91-41.47L569.91-41.47L569.91-41.47Q570.22-34.13 570.22-24L570.22-24L570.22-24Q570.22-14.09 569.84-4.28ZM568.56-4.34L568.56-4.34L568.56-4.34Q568.94-12.16 568.94-24L568.94-24L568.94-24Q568.94-34.06 568.63-41.41L568.63-41.41L568.63-41.41Q568.56-42.56 561.66-43.25L561.66-43.25L561.66-43.25Q561.13-45.31 561.78-47.28L561.78-47.28L561.78-47.28Q565.22-47.09 569.25-47.09L569.25-47.09L569.25-47.09Q573.28-47.09 578.50-47.16L578.50-47.16L578.50-47.16Q583.72-47.22 586.16-47.22L586.16-47.22L586.16-47.22Q593.72-47.22 598.03-43.39L598.03-43.39L598.03-43.39Q602.34-39.56 602.34-33.34L602.34-33.34L602.34-33.34Q602.34-28.94 599.81-25.22L599.81-25.22L599.81-25.22Q597.28-21.50 593-19.59L593-19.59L593-19.59Q595.13-16.13 597.94-12.47L597.94-12.47L597.94-12.47Q601.25-8.06 604.45-5.47L604.45-5.47L604.45-5.47Q607.66-2.88 611.56-2.50L611.56-2.50L611.56-2.50Q612.06-0.50 611.44 1.53L611.44 1.53L611.44 1.53Q606.97 1.41 595 1.28L595 1.28L595 1.28Q586.22-8.97 581.28-17.97L581.28-17.97L580.34-17.97L580.34-17.97Q580.34-12.16 580.66-4.34L580.66-4.34L580.66-4.34Q580.66-4.16 580.81-3.97L580.81-3.97L580.81-3.97Q580.97-3.78 582.03-3.38L582.03-3.38L582.03-3.38Q583.09-2.97 585.27-2.67L585.27-2.67L585.27-2.67Q587.44-2.38 587.69-2.31L587.69-2.31L587.69-2.31Q588.22-0.56 587.50 1.53L587.50 1.53L587.50 1.53Q575.97 1.28 573.50 1.28L573.50 1.28L573.50 1.28Q571.81 1.28 561.72 1.53L561.72 1.53L561.72 1.53Q560.94-0.63 561.72-2.50L561.72-2.50L561.72-2.50Q568.50-3.19 568.56-4.34ZM619.06-41.47L619.06-41.47L619.06-41.47Q619-42.63 612.09-43.31L612.09-43.31L612.09-43.31Q611.81-44.28 611.81-45.19L611.81-45.19L611.81-45.19Q611.81-46.22 612.22-47.38L612.22-47.38L612.22-47.38Q614.97-47.38 619.67-47.20L619.67-47.20L619.67-47.20Q624.38-47.03 626.22-47.03L626.22-47.03L626.22-47.03Q627.56-47.03 631.41-47.09L631.41-47.09L631.41-47.09Q635.25-47.16 638.06-47.16L638.06-47.16L638.06-47.16Q638.38-46.22 638.38-45.25L638.38-45.25L638.38-45.25Q638.38-44.34 638.13-43.31L638.13-43.31L638.13-43.31Q631.22-42.63 631.16-41.47L631.16-41.47L631.16-41.47Q631.03-39.28 631.03-18.63L631.03-18.63L631.03-18.63Q631.03-10.75 633.50-7L633.50-7L633.50-7Q635.97-3.25 641.72-2.94L641.72-2.94L641.72-2.94Q647.78-3.31 651.08-7.36L651.08-7.36L651.08-7.36Q654.38-11.41 654.38-18.63L654.38-18.63L654.38-18.63Q654.38-33.47 654.19-40.97L654.19-40.97L654.19-40.97Q654.13-42.50 647.47-43.47L647.47-43.47L647.47-43.47Q647.22-44.22 647.22-45L647.22-45L647.22-45Q647.22-45.94 647.66-47.22L647.66-47.22L647.66-47.22Q656.50-46.97 658.22-46.97L658.22-46.97L658.22-46.97Q661.56-46.97 666.75-47.16L666.75-47.16L666.75-47.16Q667.19-45.81 667.19-45.19L667.19-45.19L667.19-45.19Q667.19-44.22 666.75-43.25L666.75-43.25L666.75-43.25Q660.28-42.63 660.22-40.97L660.22-40.97L660.22-40.97Q659.91-34.94 659.91-18.63L659.91-18.63L659.91-18.63Q659.91-13.75 658.63-9.95L658.63-9.95L658.63-9.95Q657.34-6.16 655.36-3.84L655.36-3.84L655.36-3.84Q653.38-1.53 650.75-0.03L650.75-0.03L650.75-0.03Q648.13 1.47 645.69 2.02L645.69 2.02L645.69 2.02Q643.25 2.56 640.75 2.56L640.75 2.56L640.75 2.56Q635.75 2.56 632.11 1.67L632.11 1.67L632.11 1.67Q628.47 0.78 625.45-1.47L625.45-1.47L625.45-1.47Q622.44-3.72 620.91-8L620.91-8L620.91-8Q619.38-12.28 619.38-18.63L619.38-18.63L619.38-18.63Q619.38-33.91 619.06-41.47ZM626.34-41.53L626.34-41.53L626.34-41.53Q626.41-43.91 636.78-44.53L636.78-44.53L636.78-44.53Q636.97-45.13 636.78-46.03L636.78-46.03L636.78-46.03Q628.59-45.75 624-45.75L624-45.75L624-45.75Q620.16-45.75 613.09-46.03L613.09-46.03L613.09-46.03Q612.84-45.44 613.09-44.53L613.09-44.53L613.09-44.53Q614.50-44.41 615.41-44.28L615.41-44.28L615.41-44.28Q616.31-44.16 617.63-43.84L617.63-43.84L617.63-43.84Q618.94-43.53 619.64-42.92L619.64-42.92L619.64-42.92Q620.34-42.31 620.34-41.47L620.34-41.47L620.34-41.47Q620.66-31.56 620.66-18.63L620.66-18.63L620.66-18.63Q620.66-12.69 622.09-8.64L622.09-8.64L622.09-8.64Q623.53-4.59 626.39-2.48L626.39-2.48L626.39-2.48Q629.25-0.38 632.64 0.45L632.64 0.45L632.64 0.45Q636.03 1.28 640.75 1.28L640.75 1.28L640.75 1.28Q643.06 1.28 645.36 0.77L645.36 0.77L645.36 0.77Q647.66 0.25 650.09-1.16L650.09-1.16L650.09-1.16Q652.53-2.56 654.39-4.73L654.39-4.73L654.39-4.73Q656.25-6.91 657.44-10.50L657.44-10.50L657.44-10.50Q658.63-14.09 658.63-18.63L658.63-18.63L658.63-18.63Q658.63-33.59 658.94-41.03L658.94-41.03L658.94-41.03Q659.06-43.78 665.84-44.41L665.84-44.41L665.84-44.41Q666.09-44.94 665.84-45.88L665.84-45.88L665.84-45.88Q659.97-45.69 657.47-45.69L657.47-45.69L657.47-45.69Q653.56-45.69 648.56-45.88L648.56-45.88L648.56-45.88Q648.31-45.38 648.56-44.41L648.56-44.41L648.56-44.41Q655.41-43.78 655.47-41.03L655.47-41.03L655.47-41.03Q655.66-33.53 655.66-18.63L655.66-18.63L655.66-18.63Q655.66-10.44 651.77-6.05L651.77-6.05L651.77-6.05Q647.88-1.66 640.63-1.66L640.63-1.66L640.63-1.66Q632.75-1.66 629.48-5.69L629.48-5.69L629.48-5.69Q626.22-9.72 626.22-18.63L626.22-18.63L626.22-18.63Q626.22-37.31 626.34-41.53ZM698.22 1.28L698.22 1.28L698.22 1.28Q702.97 1.28 707.95-0.89L707.95-0.89L707.95-0.89Q712.94-3.06 715.84-7.28L715.84-7.28L715.84-7.28Q715.84-7.69 715.48-7.97L715.48-7.97L715.48-7.97Q715.13-8.25 714.69-8.25L714.69-8.25L714.69-8.25Q710-2.56 700.91-2.56L700.91-2.56L700.91-2.56Q691.31-2.56 686.42-8.36L686.42-8.36L686.42-8.36Q681.53-14.16 681.53-22.78L681.53-22.78L681.53-22.78Q681.53-26.69 682.39-30.33L682.39-30.33L682.39-30.33Q683.25-33.97 685.08-37.30L685.08-37.30L685.08-37.30Q686.91-40.63 690.30-42.69L690.30-42.69L690.30-42.69Q693.69-44.75 698.22-44.75L698.22-44.75L698.22-44.75Q701.31-44.75 703.94-43.78L703.94-43.78L703.94-43.78Q706.56-42.81 708.25-41.50L708.25-41.50L708.25-41.50Q709.94-40.19 711.55-37.98L711.55-37.98L711.55-37.98Q713.16-35.78 713.98-34.17L713.98-34.17L713.98-34.17Q714.81-32.56 715.97-30.09L715.97-30.09L715.97-30.09Q716.91-30.22 717.13-30.78L717.13-30.78L717.13-30.78Q714.81-40.06 710.14-43.52L710.14-43.52L710.14-43.52Q705.47-46.97 698.22-46.97L698.22-46.97L698.22-46.97Q695.28-46.97 692.22-46.27L692.22-46.27L692.22-46.27Q689.16-45.56 685.92-43.77L685.92-43.77L685.92-43.77Q682.69-41.97 680.22-39.33L680.22-39.33L680.22-39.33Q677.75-36.69 676.16-32.39L676.16-32.39L676.16-32.39Q674.56-28.09 674.56-22.78L674.56-22.78L674.56-22.78Q674.56-17.47 676.16-13.19L676.16-13.19L676.16-13.19Q677.75-8.91 680.22-6.28L680.22-6.28L680.22-6.28Q682.69-3.66 685.92-1.89L685.92-1.89L685.92-1.89Q689.16-0.13 692.22 0.58L692.22 0.58L692.22 0.58Q695.28 1.28 698.22 1.28ZM715.19-28.69L715.19-28.69L715.19-28.69Q713.84-31.69 712.72-33.64L712.72-33.64L712.72-33.64Q711.59-35.59 709.72-38.02L709.72-38.02L709.72-38.02Q707.84-40.44 705.25-41.78L705.25-41.78L705.25-41.78Q702.66-43.13 699.44-43.41L699.44-43.41L699.44-43.41Q695.88-43.13 693.22-41.14L693.22-41.14L693.22-41.14Q690.56-39.16 689.11-36.06L689.11-36.06L689.11-36.06Q687.66-32.97 686.98-29.64L686.98-29.64L686.98-29.64Q686.31-26.31 686.31-22.78L686.31-22.78L686.31-22.78Q686.31-14.91 690.28-9.56L690.28-9.56L690.28-9.56Q694.25-4.22 702.13-3.84L702.13-3.84L702.13-3.84Q709.75-4.22 714.09-9.53L714.09-9.53L714.09-9.53Q715.31-9.53 716.22-8.73L716.22-8.73L716.22-8.73Q717.13-7.94 717.13-6.84L717.13-6.84L717.13-6.84Q713.97-2.25 708.59 0.16L708.59 0.16L708.59 0.16Q703.22 2.56 698.22 2.56L698.22 2.56L698.22 2.56Q695.09 2.56 691.89 1.83L691.89 1.83L691.89 1.83Q688.69 1.09 685.27-0.77L685.27-0.77L685.27-0.77Q681.84-2.63 679.22-5.41L679.22-5.41L679.22-5.41Q676.59-8.19 674.94-12.70L674.94-12.70L674.94-12.70Q673.28-17.22 673.28-22.78L673.28-22.78L673.28-22.78Q673.28-28.59 675-33.17L675-33.17L675-33.17Q676.72-37.75 679.41-40.50L679.41-40.50L679.41-40.50Q682.09-43.25 685.69-45.08L685.69-45.08L685.69-45.08Q689.28-46.91 692.67-47.58L692.67-47.58L692.67-47.58Q696.06-48.25 699.50-48.25L699.50-48.25L699.50-48.25Q704.19-48.25 709.69-47L709.69-47L709.69-47Q715.19-45.75 717.56-45.44L717.56-45.44L717.56-45.44Q716.53-41.41 716.75-38.36L716.75-38.36L716.75-38.36Q716.97-35.31 718.53-30.91L718.53-30.91L718.53-30.91Q717.63-29.06 715.19-28.69ZM724.22-31.63L724.22-31.63L724.22-31.63Q721.84-32.56 721.09-34.06L721.09-34.06L721.09-34.06Q722.88-37.44 723.48-38.59L723.48-38.59L723.48-38.59Q724.09-39.75 724.89-42.14L724.89-42.14L724.89-42.14Q725.69-44.53 726-46.97L726-46.97L747.66-46.97L773.69-46.97L773.69-46.97Q774.47-40.84 778.56-34.06L778.56-34.06L778.56-34.06Q777.84-32.56 775.22-31.63L775.22-31.63L775.22-31.63Q772.66-36.28 767.67-39.39L767.67-39.39L767.67-39.39Q762.69-42.50 754.75-42.50L754.75-42.50L754.75-42.50Q754.50-34.75 754.50-24.13L754.50-24.13L754.50-24.13Q754.50-10.56 754.81-4.34L754.81-4.34L754.81-4.34Q754.88-3.19 761.78-2.50L761.78-2.50L761.78-2.50Q762.31-0.50 761.66 1.53L761.66 1.53L761.66 1.53Q751.53 1.28 749.88 1.28L749.88 1.28L749.88 1.28Q747.38 1.28 735.88 1.53L735.88 1.53L735.88 1.53Q735.09-0.63 735.88-2.50L735.88-2.50L735.88-2.50Q742.66-3.19 742.72-4.28L742.72-4.28L742.72-4.28Q743.03-12.16 743.03-24.13L743.03-24.13L743.03-24.13Q743.03-34.13 742.78-42.31L742.78-42.31L742.78-42.31Q729.78-40.63 724.22-31.63ZM733.06-43.59L733.06-43.59L744-43.91L744-43.91Q744.31-33.53 744.31-24.13L744.31-24.13L744.31-24.13Q744.31-12.03 744-4.28L744-4.28L744-4.28Q743.94-1.97 736.75-1.28L736.75-1.28L736.75-1.28Q736.50-0.78 736.75 0.19L736.75 0.19L736.75 0.19Q742.06 0 747.66 0L747.66 0L747.66 0Q754.31 0 760.44 0.19L760.44 0.19L760.44 0.19Q760.69-0.38 760.44-1.28L760.44-1.28L760.44-1.28Q750.06-1.91 750-4.28L750-4.28L750-4.28Q749.69-14.66 749.69-24.13L749.69-24.13L749.69-24.13Q749.69-36.16 750-43.91L750-43.91L754.81-43.78L754.81-43.78Q770.38-43.41 775.81-33.22L775.81-33.22L775.81-33.22Q776.63-33.53 776.88-34.06L776.88-34.06L776.88-34.06Q773.75-40.44 769.88-43.06L769.88-43.06L769.88-43.06Q766-45.69 758.34-45.69L758.34-45.69L747.66-45.69L747.66-45.69Q744.25-45.69 737.38-45.72L737.38-45.72L737.38-45.72Q730.50-45.75 727.16-45.75L727.16-45.75L727.16-45.75Q727.03-44.69 726.72-43.53L726.72-43.53L726.72-43.53Q726.41-42.38 726.14-41.58L726.14-41.58L726.14-41.58Q725.88-40.78 725.27-39.47L725.27-39.47L725.27-39.47Q724.66-38.16 724.44-37.70L724.44-37.70L724.44-37.70Q724.22-37.25 723.45-35.75L723.45-35.75L723.45-35.75Q722.69-34.25 722.56-34.06L722.56-34.06L722.56-34.06Q722.81-33.53 723.66-33.22L723.66-33.22L723.66-33.22Q725.88-36.88 727.09-38.63L727.09-38.63L727.09-38.63Q728.31-40.38 729.98-41.98L729.98-41.98L729.98-41.98Q731.66-43.59 733.06-43.59ZM792.31-4.28L792.31-4.28L792.31-4.28Q792.06-17.34 792.06-24L792.06-24L792.06-24Q792.06-31.69 792.38-41.47L792.38-41.47L792.38-41.47Q792.44-43.84 802.81-44.47L802.81-44.47L802.81-44.47Q803-45.06 802.81-45.94L802.81-45.94L802.81-45.94Q794.63-45.69 790.03-45.69L790.03-45.69L790.03-45.69Q786.19-45.69 779.13-45.94L779.13-45.94L779.13-45.94Q778.88-45.38 779.13-44.47L779.13-44.47L779.13-44.47Q786.31-43.78 786.38-41.47L786.38-41.47L786.38-41.47Q786.69-34.13 786.69-24L786.69-24L786.69-24Q786.69-14.09 786.31-4.28L786.31-4.28L786.31-4.28Q786.25-1.97 779.06-1.28L779.06-1.28L779.06-1.28Q778.81-0.78 779.06 0.19L779.06 0.19L779.06 0.19Q784.38 0 789.97 0L789.97 0L789.97 0Q796.63 0 802.75 0.19L802.75 0.19L802.75 0.19Q803-0.31 802.75-1.28L802.75-1.28L802.75-1.28Q792.38-1.91 792.31-4.28ZM778.13-43.25L778.13-43.25L778.13-43.25Q777.59-45.31 778.25-47.28L778.25-47.28L778.25-47.28Q781-47.28 785.70-47.13L785.70-47.13L785.70-47.13Q790.41-46.97 792.25-46.97L792.25-46.97L792.25-46.97Q793.59-46.97 797.44-47.03L797.44-47.03L797.44-47.03Q801.28-47.09 804.09-47.09L804.09-47.09L804.09-47.09Q804.69-45.31 804.16-43.25L804.16-43.25L804.16-43.25Q797.25-42.56 797.19-41.41L797.19-41.41L797.19-41.41Q796.81-33.59 796.81-21.69L796.81-21.69L796.81-21.69Q796.81-10.19 797.13-4.34L797.13-4.34L797.13-4.34Q797.13-4.16 797.28-3.97L797.28-3.97L797.28-3.97Q797.44-3.78 797.73-3.66L797.73-3.66L797.73-3.66Q798.03-3.53 798.34-3.39L798.34-3.39L798.34-3.39Q798.66-3.25 799.20-3.13L799.20-3.13L799.20-3.13Q799.75-3 800.13-2.91L800.13-2.91L800.13-2.91Q800.50-2.81 801.14-2.72L801.14-2.72L801.14-2.72Q801.78-2.63 802.17-2.56L802.17-2.56L802.17-2.56Q802.56-2.50 803.23-2.44L803.23-2.44L803.23-2.44Q803.91-2.38 804.16-2.31L804.16-2.31L804.16-2.31Q804.69-0.56 803.97 1.53L803.97 1.53L803.97 1.53Q792.44 1.28 789.97 1.28L789.97 1.28L789.97 1.28Q788.28 1.28 778.19 1.53L778.19 1.53L778.19 1.53Q777.41-0.63 778.19-2.50L778.19-2.50L778.19-2.50Q784.97-3.19 785.03-4.34L785.03-4.34L785.03-4.34Q785.41-12.16 785.41-24L785.41-24L785.41-24Q785.41-34.06 785.09-41.41L785.09-41.41L785.09-41.41Q785.03-42.56 778.13-43.25ZM835.25-43.41L835.25-43.41L835.25-43.41Q832.84-43.22 830.94-42.25L830.94-42.25L830.94-42.25Q829.03-41.28 827.59-39.73L827.59-39.73L827.59-39.73Q826.16-38.19 825.14-36.20L825.14-36.20L825.14-36.20Q824.13-34.22 823.48-32L823.48-32L823.48-32Q822.84-29.78 822.55-27.42L822.55-27.42L822.55-27.42Q822.25-25.06 822.25-22.78L822.25-22.78L822.25-22.78Q822.25-20.50 822.55-18.14L822.55-18.14L822.55-18.14Q822.84-15.78 823.50-13.56L823.50-13.56L823.50-13.56Q824.16-11.34 825.17-9.38L825.17-9.38L825.17-9.38Q826.19-7.41 827.64-5.89L827.64-5.89L827.64-5.89Q829.09-4.38 830.98-3.44L830.98-3.44L830.98-3.44Q832.88-2.50 835.25-2.31L835.25-2.31L835.25-2.31Q837.69-2.50 839.59-3.45L839.59-3.45L839.59-3.45Q841.50-4.41 842.95-5.92L842.95-5.92L842.95-5.92Q844.41-7.44 845.42-9.42L845.42-9.42L845.42-9.42Q846.44-11.41 847.08-13.61L847.08-13.61L847.08-13.61Q847.72-15.81 848.02-18.17L848.02-18.17L848.02-18.17Q848.31-20.53 848.31-22.78L848.31-22.78L848.31-22.78Q848.31-25.06 848.02-27.42L848.02-27.42L848.02-27.42Q847.72-29.78 847.08-32.02L847.08-32.02L847.08-32.02Q846.44-34.25 845.42-36.23L845.42-36.23L845.42-36.23Q844.41-38.22 842.95-39.75L842.95-39.75L842.95-39.75Q841.50-41.28 839.58-42.25L839.58-42.25L839.58-42.25Q837.66-43.22 835.25-43.41ZM834.16-0.97L834.16-0.97L834.16-0.97Q831.06-0.97 828.63-1.89L828.63-1.89L828.63-1.89Q826.19-2.81 824.33-4.39L824.33-4.39L824.33-4.39Q822.47-5.97 821.17-8.09L821.17-8.09L821.17-8.09Q819.88-10.22 819.05-12.64L819.05-12.64L819.05-12.64Q818.22-15.06 817.84-17.67L817.84-17.67L817.84-17.67Q817.47-20.28 817.47-22.78L817.47-22.78L817.47-22.78Q817.47-25.28 817.84-27.89L817.84-27.89L817.84-27.89Q818.22-30.50 819.03-32.94L819.03-32.94L819.03-32.94Q819.84-35.38 821.16-37.53L821.16-37.53L821.16-37.53Q822.47-39.69 824.31-41.28L824.31-41.28L824.31-41.28Q826.16-42.88 828.61-43.81L828.61-43.81L828.61-43.81Q831.06-44.75 834.16-44.75L834.16-44.75L834.16-44.75Q837-44.75 839.25-43.83L839.25-43.83L839.25-43.83Q841.50-42.91 843.20-41.30L843.20-41.30L843.20-41.30Q844.91-39.69 846.13-37.53L846.13-37.53L846.13-37.53Q847.34-35.38 848.11-32.94L848.11-32.94L848.11-32.94Q848.88-30.50 849.23-27.89L849.23-27.89L849.23-27.89Q849.59-25.28 849.59-22.78L849.59-22.78L849.59-22.78Q849.59-20.28 849.25-17.70L849.25-17.70L849.25-17.70Q848.91-15.13 848.14-12.70L848.14-12.70L848.14-12.70Q847.38-10.28 846.17-8.14L846.17-8.14L846.17-8.14Q844.97-6 843.25-4.41L843.25-4.41L843.25-4.41Q841.53-2.81 839.28-1.89L839.28-1.89L839.28-1.89Q837.03-0.97 834.16-0.97ZM834.16 1.28L834.16 1.28L834.16 1.28Q836.31 1.28 838.81 0.84L838.81 0.84L838.81 0.84Q841.31 0.41 843.80-0.66L843.80-0.66L843.80-0.66Q846.28-1.72 848.59-3.50L848.59-3.50L848.59-3.50Q850.91-5.28 852.67-7.95L852.67-7.95L852.67-7.95Q854.44-10.63 855.50-14.30L855.50-14.30L855.50-14.30Q856.56-17.97 856.56-22.78L856.56-22.78L856.56-22.78Q856.56-27.50 855.52-31.14L855.52-31.14L855.52-31.14Q854.47-34.78 852.72-37.47L852.72-37.47L852.72-37.47Q850.97-40.16 848.69-41.97L848.69-41.97L848.69-41.97Q846.41-43.78 843.91-44.89L843.91-44.89L843.91-44.89Q841.41-46 838.89-46.48L838.89-46.48L838.89-46.48Q836.38-46.97 834.16-46.97L834.16-46.97L834.16-46.97Q832-46.97 829.41-46.55L829.41-46.55L829.41-46.55Q826.81-46.13 824.19-45.08L824.19-45.08L824.19-45.08Q821.56-44.03 819.09-42.25L819.09-42.25L819.09-42.25Q816.63-40.47 814.72-37.78L814.72-37.78L814.72-37.78Q812.81-35.09 811.66-31.39L811.66-31.39L811.66-31.39Q810.50-27.69 810.50-22.78L810.50-22.78L810.50-22.78Q810.50-18.03 811.61-14.41L811.61-14.41L811.61-14.41Q812.72-10.78 814.56-8.11L814.56-8.11L814.56-8.11Q816.41-5.44 818.83-3.64L818.83-3.64L818.83-3.64Q821.25-1.84 823.88-0.75L823.88-0.75L823.88-0.75Q826.50 0.34 829.16 0.81L829.16 0.81L829.16 0.81Q831.81 1.28 834.16 1.28ZM835.25 2.69L835.25 2.69L835.25 2.69Q828.97 2.69 824.13 0.86L824.13 0.86L824.13 0.86Q819.28-0.97 815.97-4.30L815.97-4.30L815.97-4.30Q812.66-7.63 810.94-12.33L810.94-12.33L810.94-12.33Q809.22-17.03 809.22-22.78L809.22-22.78L809.22-22.78Q809.22-28.53 810.94-33.23L810.94-33.23L810.94-33.23Q812.66-37.94 815.97-41.27L815.97-41.27L815.97-41.27Q819.28-44.59 824.13-46.42L824.13-46.42L824.13-46.42Q828.97-48.25 835.25-48.25L835.25-48.25L835.25-48.25Q841.16-48.25 845.98-46.56L845.98-46.56L845.98-46.56Q850.81-44.88 854.23-41.64L854.23-41.64L854.23-41.64Q857.66-38.41 859.52-33.66L859.52-33.66L859.52-33.66Q861.38-28.91 861.38-22.78L861.38-22.78L861.38-22.78Q861.38-16.63 859.52-11.89L859.52-11.89L859.52-11.89Q857.66-7.16 854.23-3.91L854.23-3.91L854.23-3.91Q850.81-0.66 845.98 1.02L845.98 1.02L845.98 1.02Q841.16 2.69 835.25 2.69ZM883.50-46.97L905.13-19.97L905.13-24.06L905.13-24.06Q905.13-31.28 904.81-41.03L904.81-41.03L904.81-41.03Q904.75-42.69 897.97-43.25L897.97-43.25L897.97-43.25Q897.53-44.34 897.53-45.25L897.53-45.25L897.53-45.25Q897.53-45.81 897.97-47.16L897.97-47.16L897.97-47.16Q902.72-46.97 907.52-46.97L907.52-46.97L907.52-46.97Q912.31-46.97 917.38-47.16L917.38-47.16L917.38-47.16Q917.81-45.81 917.81-45.25L917.81-45.25L917.81-45.25Q917.81-44.34 917.38-43.25L917.38-43.25L917.38-43.25Q910.91-42.63 910.84-41.03L910.84-41.03L910.84-41.03Q910.44-34.44 910.44-21.75L910.44-21.75L910.44-21.75Q910.44-7.44 910.84 1.41L910.84 1.41L908.28 1.47L878.63-34.81L878.63-34.81Q878.63-34.25 878.59-32.77L878.59-32.77L878.59-32.77Q878.56-31.28 878.56-30.47L878.56-30.47L878.56-30.47Q878.56-15.38 878.97-4.75L878.97-4.75L878.97-4.75Q879.03-3.06 885.81-2.50L885.81-2.50L885.81-2.50Q886.25-1.41 886.25-0.50L886.25-0.50L886.25-0.50Q886.25 0.19 885.81 1.53L885.81 1.53L885.81 1.53Q881 1.34 876.28 1.34L876.28 1.34L876.28 1.34Q871.47 1.34 866.41 1.53L866.41 1.53L866.41 1.53Q865.97 0.19 865.97-0.50L865.97-0.50L865.97-0.50Q865.97-1.41 866.41-2.50L866.41-2.50L866.41-2.50Q872.88-3.13 872.94-4.75L872.94-4.75L872.94-4.75Q873.31-11.31 873.31-24L873.31-24L873.31-24Q873.31-33.72 873.06-41.34L873.06-41.34L873.06-41.34Q871.03-42.94 866.88-43.25L866.88-43.25L866.88-43.25Q866.41-44.09 866.41-45.19L866.41-45.19L866.41-45.19Q866.41-46.34 867-47.28L867-47.28L867-47.28Q873.53-46.97 883.50-46.97L883.50-46.97ZM909.16-21.75L909.16-21.75L909.16-21.75Q909.16-31.22 909.56-41.03L909.56-41.03L909.56-41.03Q909.69-43.84 916.47-44.47L916.47-44.47L916.47-44.47Q916.72-45 916.47-45.94L916.47-45.94L916.47-45.94Q910.56-45.75 908.09-45.75L908.09-45.75L908.09-45.75Q904.19-45.75 899.19-45.94L899.19-45.94L899.19-45.94Q898.94-45 899.19-44.47L899.19-44.47L899.19-44.47Q906.03-43.84 906.09-41.03L906.09-41.03L906.09-41.03Q906.41-31.28 906.41-24.06L906.41-24.06L906.41-24.06Q906.41-19.84 906.28-12.69L906.28-12.69L879.34-45.69L879.34-45.69Q872.31-45.69 867.69-45.94L867.69-45.94L867.69-45.94Q867.44-45.19 867.69-44.47L867.69-44.47L867.69-44.47Q871.72-44.22 874.34-41.91L874.34-41.91L874.34-41.91Q874.59-34.31 874.59-24L874.59-24L874.59-24Q874.59-14.53 874.22-4.75L874.22-4.75L874.22-4.75Q874.09-1.91 867.31-1.28L867.31-1.28L867.31-1.28Q867.06-0.78 867.31 0.19L867.31 0.19L867.31 0.19Q873.19 0 875.69 0L875.69 0L875.69 0Q879.59 0 884.59 0.19L884.59 0.19L884.59 0.19Q884.84-0.78 884.59-1.28L884.59-1.28L884.59-1.28Q877.75-1.91 877.69-4.75L877.69-4.75L877.69-4.75Q877.38-14.47 877.38-21.69L877.38-21.69L877.38-21.69Q877.38-29.94 877.56-38.03L877.56-38.03L877.88-38.03L908.91 0.19L909.50 0.13L909.50 0.13Q909.16-7.22 909.16-21.75Z" fill="#444"></path></g></g><style>text {
  font-size: 64px;
  font-family: Arial Black;
  dominant-baseline: central;
  text-anchor: middle;
}</style></svg>